# xmcd CD database file
#
# Track frame offsets:
#	150
#	13667
#	25477
#	40836
#	55430
#	68243
#	81126
#	95615
#	112313
#	150451
#	162459
#	178022
#	209873
#	241626
#	262294
#	286073
#	304308
#
# Disc length: 4228 seconds
#
# Revision: 0
# Processed by: cddbd v1.5.2PL0 Copyright (c) Steve Scherf et al.
# Submitted via: CDex 1.51
#
DISCID=fa108211
DTITLE=Kenny Graham - four classic albums plus - CD 4
DYEAR=2013
DGENRE=Jazz
TTITLE0=Boom
TTITLE1=Barbados
TTITLE2=All the Kings horses
TTITLE3=Peanut vendor
TTITLE4=I'll remember April
TTITLE5=Jump for Joe
TTITLE6=A night in Tunisia
TTITLE7=Take the 'A' train
TTITLE8=Afro-Kadabra
TTITLE9=Flamingo
TTITLE10=Ken B'Sindika
TTITLE11=Caravan
TTITLE12=Kings cross climax
TTITLE13=Poinciana
TTITLE14=Teddy boy
TTITLE15=Kilroy was gone
TTITLE16=Begin the beguine
EXTD=YEAR: 2013
EXTT0=
EXTT1=
EXTT2=
EXTT3=
EXTT4=
EXTT5=
EXTT6=
EXTT7=
EXTT8=
EXTT9=
EXTT10=
EXTT11=
EXTT12=
EXTT13=
EXTT14=
EXTT15=
EXTT16=
PLAYORDER=
